<svg width="24" height="24" viewBox="0 0 24 24" fill="none" xmlns="http://www.w3.org/2000/svg">
<path fill-rule="evenodd" clip-rule="evenodd" d="M10.498 17.5806C6.63205 17.5806 3.49805 14.4466 3.49805 10.5806C3.49805 6.71457 6.63205 3.58057 10.498 3.58057C14.364 3.58057 17.498 6.71457 17.498 10.5806C17.498 14.4466 14.364 17.5806 10.498 17.5806ZM1.49805 10.5806C1.49805 5.61 5.52748 1.58057 10.498 1.58057C15.4686 1.58057 19.498 5.61 19.498 10.5806C19.498 12.7027 18.7635 14.6534 17.5349 16.1921L22.1975 20.7002C22.5946 21.0841 22.6052 21.7172 22.2213 22.1143C21.8374 22.5113 21.2044 22.522 20.8073 22.1381L16.1217 17.6077C14.5811 18.8422 12.6258 19.5806 10.498 19.5806C5.52748 19.5806 1.49805 15.5511 1.49805 10.5806Z" fill="#1A1A1A"/>
</svg>
